<?xml version="1.0" encoding="UTF-8" standalone="no"?>
<svg width="86px" height="86px" viewBox="0 0 86 86" version="1.1" xmlns="http://www.w3.org/2000/svg" xmlns:xlink="http://www.w3.org/1999/xlink" xmlns:sketch="http://www.bohemiancoding.com/sketch/ns">
    <!-- Generator: Sketch 3.0.4 (8053) - http://www.bohemiancoding.com/sketch -->
    <title>Group</title>
    <desc>Created with Sketch.</desc>
    <defs>
        <path id="path-1" d="M0.06,-0.066 L85.038,-0.066 L85.038,85 L0.06,85"></path>
    </defs>
    <g id="Page-1" stroke="none" stroke-width="1" fill="none" fill-rule="evenodd" sketch:type="MSPage">
        <g id="Group" sketch:type="MSLayerGroup" transform="translate(0.000000, 1.000000)">
            <mask id="mask-2" sketch:name="Clip 2" fill="white">
                <use xlink:href="#path-1"></use>
            </mask>
            <g id="Clip-2"></g>
            <path d="M0.01,10.132 L0.01,-0.066 L10.208,-0.066 L0.01,10.132" id="Fill-1" fill="#FFFFFF" sketch:type="MSShapeGroup" mask="url(#mask-2)"></path>
            <path d="M74.836,-0.058 L85.036,-0.058 L85.036,10.141 L74.836,-0.058" id="Fill-3" fill="#FFFFFF" sketch:type="MSShapeGroup" mask="url(#mask-2)"></path>
            <path d="M10.198,85 L0,85 L0,74.803 L10.198,85" id="Fill-4" fill="#FFFFFF" sketch:type="MSShapeGroup" mask="url(#mask-2)"></path>
            <path d="M85.038,74.797 L85.038,84.995 L74.838,84.995 L85.038,74.797" id="Fill-6" fill="#FFFFFF" sketch:type="MSShapeGroup" mask="url(#mask-2)"></path>
            <path d="M33.165,27.029 C33.303,27.087 33.443,27.152 33.584,27.227 C33.442,27.152 33.303,27.087 33.165,27.029" id="Fill-7" fill="#FFFFFF" sketch:type="MSShapeGroup" mask="url(#mask-2)"></path>
            <path d="M31.807,26.664 C31.975,26.686 32.156,26.717 32.345,26.762 C32.156,26.717 31.976,26.686 31.807,26.664" id="Fill-8" fill="#FFFFFF" sketch:type="MSShapeGroup" mask="url(#mask-2)"></path>
            <path d="M32.504,26.805 C32.646,26.842 32.791,26.887 32.941,26.939 C32.791,26.887 32.646,26.842 32.504,26.805" id="Fill-9" fill="#FFFFFF" sketch:type="MSShapeGroup" mask="url(#mask-2)"></path>
            <path d="M33.824,27.359 C33.973,27.447 34.123,27.551 34.271,27.66 C34.122,27.55 33.974,27.447 33.824,27.359" id="Fill-10" fill="#FFFFFF" sketch:type="MSShapeGroup" mask="url(#mask-2)"></path>
            <path d="M34.488,27.818 C34.709,27.996 34.928,28.194 35.143,28.429 C34.928,28.194 34.709,27.996 34.488,27.818" id="Fill-11" fill="#FFFFFF" sketch:type="MSShapeGroup" mask="url(#mask-2)"></path>
            <path d="M31.332,26.625 C31.437,26.629 31.556,26.64 31.676,26.652 C31.555,26.64 31.438,26.629 31.332,26.625" id="Fill-12" fill="#FFFFFF" sketch:type="MSShapeGroup" mask="url(#mask-2)"></path>
            <path d="M31.04,26.617 C30.998,26.617 30.967,26.617 30.929,26.618 C30.996,26.617 31.078,26.619 31.16,26.619 C31.121,26.619 31.076,26.617 31.04,26.617" id="Fill-13" fill="#FFFFFF" sketch:type="MSShapeGroup" mask="url(#mask-2)"></path>
            <path d="M13.078,27.252 L17.324,27.252 C17.926,27.252 18.537,27.856 18.699,28.252 C18.84,28.997 18.918,29.533 18.918,29.762 C18.918,30.059 18.839,30.584 18.706,31.184 C18.567,31.629 17.996,32.27 17.324,32.27 L13.078,32.27 L13.078,27.252 L13.078,27.252 Z M13.078,19.479 L15.84,19.479 C16.457,19.479 16.955,20.227 17.06,20.646 C17.196,21.193 17.274,21.694 17.274,22.019 C17.274,22.402 17.185,22.858 17.06,23.454 C16.946,23.906 16.402,24.592 15.84,24.592 L13.078,24.592 L13.078,19.479 L13.078,19.479 Z M19.93,33.896 C20.627,33.266 21.12,32.5 21.32,31.729 C21.453,31.07 21.515,30.455 21.515,29.793 C21.515,29.098 21.441,28.392 21.285,27.616 C21.129,27.084 20.69,26.281 19.908,25.609 C19.662,25.436 19.435,25.282 19.227,25.148 C19.484,24.734 19.651,24.318 19.676,24.029 C19.83,23.408 19.902,22.769 19.902,22.019 C19.902,21.229 19.852,20.687 19.734,20.246 C19.277,18.877 17.723,16.849 15.84,16.849 L10.449,16.849 L10.449,34.898 L17.324,34.898 C18.156,34.898 19.053,34.557 19.93,33.896 L19.93,33.896 Z" id="Fill-14" fill="#FFFFFF" sketch:type="MSShapeGroup" mask="url(#mask-2)"></path>
            <path d="M25.299,31.98 C25.299,30.711 25.741,29.507 26.566,28.387 L26.566,16.817 L23.906,16.817 L23.906,34.867 L25.994,34.867 C25.891,34.648 25.789,34.432 25.711,34.221 C25.437,33.486 25.299,32.732 25.299,31.98" id="Fill-15" fill="#FFFFFF" sketch:type="MSShapeGroup" mask="url(#mask-2)"></path>
            <path d="M34.309,34.867 L34.309,32.238 L28.56,32.238 C28.764,33.103 29.165,33.982 29.743,34.867 L34.309,34.867" id="Fill-16" fill="#FFFFFF" sketch:type="MSShapeGroup" mask="url(#mask-2)"></path>
            <path d="M42.334,21.818 C42.766,23.16 43.605,25.659 43.975,26.747 L40.699,26.747 C41.668,23.809 42.119,22.459 42.334,21.818 L42.334,21.818 Z M38.037,34.937 L38.082,34.789 C38.775,32.496 39.338,30.733 39.801,29.407 L44.873,29.407 L46.676,34.937 L49.516,34.937 L43.549,16.998 L43.5,16.855 L41.178,16.855 L35.193,34.937 L38.037,34.937 L38.037,34.937 Z" id="Fill-17" fill="#FFFFFF" sketch:type="MSShapeGroup" mask="url(#mask-2)"></path>
            <path d="M53.877,19.484 L56.418,19.484 C58.102,19.484 59.809,20.777 60.068,22.252 C60.25,23.248 60.35,24.525 60.35,25.85 C60.35,27.172 60.25,28.449 60.068,29.447 C59.809,30.895 58.068,32.215 56.418,32.215 L53.877,32.215 L53.877,19.484 L53.877,19.484 Z M62.658,29.969 C62.879,28.896 63.01,27.356 63.01,25.85 C63.01,24.342 62.879,22.801 62.658,21.725 C62.354,20.443 61.48,19.084 60.43,18.256 C59.248,17.379 57.75,16.855 56.418,16.855 L51.281,16.855 L51.281,34.842 L56.418,34.842 C59.295,34.842 62.094,32.656 62.658,29.969 L62.658,29.969 Z" id="Fill-18" fill="#FFFFFF" sketch:type="MSShapeGroup" mask="url(#mask-2)"></path>
            <path d="M75.275,32.137 L68.232,32.137 L68.232,27.023 L73.346,27.023 L73.346,24.323 L68.232,24.323 L68.232,19.145 L75.275,19.145 L75.275,16.479 L65.535,16.479 L65.535,34.803 L75.275,34.803 L75.275,32.137" id="Fill-19" fill="#FFFFFF" sketch:type="MSShapeGroup" mask="url(#mask-2)"></path>
            <path d="M17.111,57.173 C16.773,56.924 16.423,56.683 16.064,56.436 C15.298,55.905 14.504,55.357 13.74,54.682 C13.627,54.473 13.404,54.055 13.404,53.834 C13.404,53.141 13.938,52.596 13.948,52.586 C14.383,52.122 14.846,51.988 16.008,51.988 C17.144,51.988 18.286,53.075 18.554,54.411 L18.596,54.619 L21.182,54.056 L21.143,53.855 C20.871,52.464 20.141,51.157 19.227,50.441 C18.222,49.713 17.108,49.327 16.008,49.327 C14.367,49.327 13.191,49.561 12.031,50.754 C11.213,51.645 10.744,52.779 10.744,53.865 C10.744,54.57 11.048,55.473 11.54,56.228 C12,56.886 13.338,57.843 15.207,59.079 C15.426,59.324 15.873,59.673 16.11,59.756 C16.705,60.171 18.1,61.143 18.39,61.502 C18.572,61.684 18.676,62.068 18.676,62.555 C18.676,63 18.424,63.595 18.191,63.935 C17.842,64.333 17.058,65.002 15.725,65.002 C13.203,65.002 12.664,62.655 12.611,62.388 L12.568,62.18 L9.991,62.741 L10.019,62.934 C10.119,63.592 10.475,65.226 11.641,66.191 L11.897,66.38 C12.959,67.242 14.215,67.662 15.725,67.662 C17.883,67.662 19.353,66.56 20.216,65.624 C20.857,64.822 21.273,63.668 21.273,62.688 C21.306,61.589 20.966,60.524 20.342,59.771 C19.812,59.109 18.395,58.082 17.111,57.173" id="Fill-20" fill="#FFFFFF" sketch:type="MSShapeGroup" mask="url(#mask-2)"></path>
            <path d="M32.682,49.359 L32.682,51.714 C32.756,51.716 32.828,51.726 32.902,51.726 C33.729,51.726 34.534,51.589 35.31,51.331 L35.31,49.359 L32.682,49.359" id="Fill-21" fill="#FFFFFF" sketch:type="MSShapeGroup" mask="url(#mask-2)"></path>
            <path d="M32.682,57.133 L25.451,57.133 L25.451,52.602 C24.975,52.263 24.521,51.882 24.102,51.447 C23.611,50.941 23.187,50.394 22.822,49.811 L22.822,67.535 L25.451,67.535 L25.451,59.792 L32.682,59.792 L32.682,67.535 L35.31,67.535 L35.31,53.742 C34.483,54.039 33.609,54.244 32.682,54.337 L32.682,57.133" id="Fill-22" fill="#FFFFFF" sketch:type="MSShapeGroup" mask="url(#mask-2)"></path>
            <path d="M42.127,59.376 C43.094,56.438 43.547,55.089 43.762,54.448 C44.195,55.796 45.039,58.307 45.402,59.376 L42.127,59.376 L42.127,59.376 Z M44.805,54.101 C44.057,54.101 43.164,53.942 42.076,53.616 C41.83,53.541 41.584,53.44 41.338,53.314 L36.621,67.567 L39.465,67.567 L39.51,67.419 C39.956,65.941 40.615,63.795 41.229,62.036 L46.301,62.036 L48.104,67.567 L50.943,67.567 L46.463,54.101 L44.805,54.101 L44.805,54.101 Z" id="Fill-23" fill="#FFFFFF" sketch:type="MSShapeGroup" mask="url(#mask-2)"></path>
            <path d="M44.977,49.628 L44.928,49.485 L42.605,49.485 L42.197,50.718 C43.504,51.917 45.006,52.348 45.932,52.504 L44.977,49.628" id="Fill-24" fill="#FFFFFF" sketch:type="MSShapeGroup" mask="url(#mask-2)"></path>
            <path d="M60.953,62.077 C60.691,63.524 58.953,64.844 57.301,64.844 L54.762,64.844 L54.762,52.114 L57.301,52.114 C58.986,52.114 60.691,53.406 60.953,54.882 C61.133,55.876 61.232,57.154 61.232,58.479 C61.232,59.803 61.133,61.081 60.953,62.077 L60.953,62.077 Z M61.312,50.885 C60.133,50.009 58.633,49.485 57.301,49.485 L52.164,49.485 L52.164,67.472 L57.301,67.472 C60.178,67.472 62.977,65.285 63.541,62.598 C63.762,61.528 63.895,59.987 63.895,58.479 C63.895,56.969 63.762,55.431 63.541,54.353 C63.236,53.073 62.363,51.713 61.312,50.885 L61.312,50.885 Z" id="Fill-25" fill="#FFFFFF" sketch:type="MSShapeGroup" mask="url(#mask-2)"></path>
            <path d="M75.289,52.081 L75.289,49.454 L65.709,49.454 L65.709,67.472 L75.289,67.472 L75.289,64.844 L68.369,64.844 L68.369,59.825 L73.393,59.825 L73.393,57.164 L68.369,57.164 L68.369,52.081 L75.289,52.081" id="Fill-26" fill="#FFFFFF" sketch:type="MSShapeGroup" mask="url(#mask-2)"></path>
            <path d="M36.033,51.625 C35.795,51.724 35.555,51.809 35.31,51.884 C34.533,52.124 33.73,52.246 32.902,52.246 C32.828,52.246 32.756,52.236 32.682,52.233 C31.514,52.203 30.387,51.941 29.305,51.43 C28.155,50.886 27.135,50.102 26.246,49.075 C25.43,48.16 24.803,47.144 24.364,46.026 C23.925,44.906 23.707,43.785 23.707,42.66 C23.707,41.202 24.086,39.941 24.846,38.878 C25.605,37.814 26.231,37.25 27.87,36.871 L38.445,49.947 C37.839,50.65 37.037,51.211 36.033,51.625 L36.033,51.625 Z M46.115,53.055 C45.193,52.927 43.51,52.517 42.021,51.245 C41.395,50.707 40.8,50.023 40.317,49.131 C41.85,47.154 42.807,45.349 43.191,43.717 C43.809,40.911 43.633,39.467 43.16,38.76 L40.131,38.737 L40.127,39.125 C40.893,39.125 42.227,39.164 42.152,41.307 C42.131,41.949 42.049,42.754 41.838,43.717 C41.553,44.929 40.806,46.436 39.594,48.241 L29.75,35.819 C29.511,35.5 29.302,35.184 29.107,34.867 C28.566,33.982 28.2,33.105 28.013,32.238 C27.914,31.779 27.858,31.322 27.858,30.869 C27.858,29.978 28.112,29.253 28.619,28.689 C29.125,28.129 29.78,27.847 30.584,27.847 C31.276,27.847 32.213,27.949 33.198,28.533 C34.193,29.123 34.851,30.332 34.841,31.234 L35.144,31.225 L35.143,28.429 C34.928,28.194 34.709,27.996 34.488,27.818 C34.416,27.76 34.344,27.713 34.271,27.66 C34.123,27.551 33.973,27.447 33.824,27.359 C33.744,27.311 33.664,27.268 33.584,27.227 C33.443,27.152 33.303,27.087 33.165,27.029 C33.09,26.999 33.016,26.967 32.941,26.939 C32.791,26.887 32.646,26.842 32.504,26.805 C32.451,26.791 32.396,26.773 32.345,26.762 C32.156,26.717 31.975,26.686 31.807,26.664 C31.761,26.658 31.721,26.656 31.676,26.652 C31.556,26.64 31.437,26.629 31.332,26.625 C31.271,26.622 31.215,26.621 31.16,26.619 C31.078,26.619 30.996,26.617 30.929,26.618 C30.802,26.62 30.693,26.623 30.621,26.623 C29.323,26.623 28.199,27.191 27.247,28.328 C26.979,28.648 26.759,28.977 26.566,29.309 C26.074,30.158 25.82,31.048 25.82,31.98 C25.82,32.674 25.945,33.359 26.199,34.039 C26.299,34.309 26.437,34.587 26.578,34.867 C26.795,35.297 27.045,35.734 27.358,36.189 C25.518,36.758 24.127,37.695 23.187,38.998 C22.248,40.303 21.777,41.949 21.777,43.94 C21.777,46.015 22.244,47.817 23.162,49.359 C23.529,49.976 23.961,50.555 24.475,51.085 C24.783,51.404 25.112,51.687 25.451,51.951 C27.088,53.228 29.073,53.878 31.419,53.878 C31.851,53.878 32.271,53.853 32.682,53.811 C33.615,53.716 34.488,53.498 35.31,53.185 C35.504,53.111 35.701,53.045 35.887,52.96 C37.223,52.348 38.303,51.584 39.131,50.671 C39.926,51.683 40.717,52.393 41.504,52.811 C41.746,52.939 41.986,53.045 42.227,53.118 C43.252,53.425 44.111,53.58 44.805,53.58 L46.807,53.58 L46.807,53.115 C46.807,53.115 46.543,53.114 46.115,53.055 L46.115,53.055 Z" id="Fill-27" fill="#FFFFFF" sketch:type="MSShapeGroup" mask="url(#mask-2)"></path>
            <path d="M34.271,27.66 C34.344,27.713 34.416,27.76 34.488,27.818 C34.416,27.76 34.345,27.713 34.271,27.66" id="Fill-28" fill="#FFFFFF" sketch:type="MSShapeGroup" mask="url(#mask-2)"></path>
            <path d="M31.676,26.652 C31.721,26.656 31.761,26.658 31.807,26.664 C31.76,26.658 31.721,26.656 31.676,26.652" id="Fill-29" fill="#FFFFFF" sketch:type="MSShapeGroup" mask="url(#mask-2)"></path>
            <path d="M31.16,26.619 C31.215,26.621 31.271,26.622 31.332,26.625 C31.27,26.622 31.217,26.621 31.16,26.619" id="Fill-30" fill="#FFFFFF" sketch:type="MSShapeGroup" mask="url(#mask-2)"></path>
            <path d="M32.941,26.939 C33.016,26.967 33.09,26.999 33.165,27.029 C33.09,26.999 33.016,26.967 32.941,26.939" id="Fill-31" fill="#FFFFFF" sketch:type="MSShapeGroup" mask="url(#mask-2)"></path>
            <path d="M33.584,27.227 C33.664,27.268 33.744,27.311 33.824,27.359 C33.744,27.311 33.665,27.268 33.584,27.227" id="Fill-32" fill="#FFFFFF" sketch:type="MSShapeGroup" mask="url(#mask-2)"></path>
            <path d="M32.345,26.762 C32.396,26.773 32.451,26.791 32.504,26.805 C32.45,26.791 32.396,26.773 32.345,26.762" id="Fill-33" fill="#FFFFFF" sketch:type="MSShapeGroup" mask="url(#mask-2)"></path>
            <path d="M30.621,26.623 C30.693,26.623 30.802,26.62 30.929,26.618 C30.801,26.62 30.693,26.623 30.621,26.623" id="Fill-34" fill="#FFFFFF" sketch:type="MSShapeGroup" mask="url(#mask-2)"></path>
        </g>
    </g>
</svg>